<?xml version="1.0" encoding="utf-8"?>
<!-- Generator: Adobe Illustrator 18.1.1, SVG Export Plug-In . SVG Version: 6.00 Build 0)  -->
<svg version="1.1" id="Calque_1" xmlns="http://www.w3.org/2000/svg" xmlns:xlink="http://www.w3.org/1999/xlink" x="0px" y="0px"
	 viewBox="0 0 595.3 841.9" enable-background="new 0 0 595.3 841.9" xml:space="preserve">
<g>
	<path d="M542.5,156C449.6,78.1,319,55.5,200.9,103.2C98,145.9,22.6,243.9,5,354.4c-32.7,206,125.6,381.8,326.5,381.8
		c47.7,0,92.9-10,138.1-30.1C457,681,429.4,668.4,404.3,676c-22.6,5-47.7,10-70.3,10C170.7,686,40.1,545.3,57.7,379.6
		c10-100.5,77.9-190.9,170.8-228.6c98-40.2,203.5-20.1,281.3,42.7l-37.7,35.2h103v-108L542.5,156z"/>
</g>
</svg>
