<?xml version="1.0" encoding="utf-8"?>
<!-- Generator: Adobe Illustrator 18.1.1, SVG Export Plug-In . SVG Version: 6.00 Build 0)  -->
<svg version="1.1" id="Calque_1" xmlns="http://www.w3.org/2000/svg" xmlns:xlink="http://www.w3.org/1999/xlink" x="0px" y="0px"
	 viewBox="0 0 512 512" enable-background="new 0 0 512 512" xml:space="preserve">
<g>
	<path fill="#010102" d="M172,154.2l83.9-83.9l83.9,83.9c11.1,11.1,29.2,11.1,40.3,0c11.1-11.1,11.1-29.2,0-40.3L276.4,10.3
		c-5.6-5.6-13.1-8.3-20.5-8.2c-7.4-0.1-14.9,2.6-20.5,8.2L131.8,113.9c-11.1,11.1-11.1,29.2,0,40.3C142.8,165.2,161,165.2,172,154.2
		z"/>
	<path fill="#010102" d="M339.8,358.3l-83.9,83.9L172,358.3c-11.1-11.1-29.2-11.1-40.3,0c-11.1,11.1-11.1,29.2,0,40.3l103.6,103.6
		c5.6,5.6,13.1,8.3,20.5,8.2c7.4,0.1,14.9-2.6,20.5-8.2l103.6-103.6c11.1-11.1,11.1-29.2,0-40.3C369,347.2,350.9,347.2,339.8,358.3z
		"/>
</g>
</svg>
