<?xml version="1.0" encoding="utf-8"?>
<!-- Generator: Adobe Illustrator 16.0.3, SVG Export Plug-In . SVG Version: 6.00 Build 0)  -->
<!DOCTYPE svg PUBLIC "-//W3C//DTD SVG 1.1//EN" "http://www.w3.org/Graphics/SVG/1.1/DTD/svg11.dtd">
<svg version="1.1" id="Calque_1" xmlns="http://www.w3.org/2000/svg" xmlns:xlink="http://www.w3.org/1999/xlink" x="0px" y="0px"
	 width="512px" height="512px" viewBox="-250.5 -248 512 512" enable-background="new -250.5 -248 512 512" xml:space="preserve">
<path fill="#444444" d="M172.671-93.256L31.541-234.402c-0.349-0.349-0.856-0.476-1.205-0.84l-1.713-1.617
	c-1.269-1.57-2.601-2.934-4.187-4.202l-2.029-1.966l-0.19,0.507c-4.693-3.108-10.021-5.423-16.063-5.423h-1.3
	c-6.011,0-11.228,2.252-15.874,5.296l-0.396-0.38l-2.015,1.966c-1.554,1.3-2.949,2.632-4.218,4.234l-1.617,1.554
	c-0.365,0.365-0.889,0.492-1.269,0.872L-161.68-93.288c-11.528,11.528-11.528,30.209-0.032,41.736l0.92,0.904
	c11.497,11.496,30.161,11.496,41.72-0.031l94.478-94.478v379.75c0,16.301,13.178,29.463,29.479,29.463h1.301
	c16.285,0,29.479-13.162,29.479-29.463v-379.719l94.509,94.478c11.513,11.528,30.192,11.528,41.705,0.032l0.92-0.904
	c11.417-11.528,11.417-30.208-0.127-41.769V-93.256z"/>
</svg>
