<?xml version="1.0" encoding="utf-8"?>
<!-- Generated by IcoMoon.io -->
<!DOCTYPE svg PUBLIC "-//W3C//DTD SVG 1.1//EN" "http://www.w3.org/Graphics/SVG/1.1/DTD/svg11.dtd">
<svg version="1.1" xmlns="http://www.w3.org/2000/svg" xmlns:xlink="http://www.w3.org/1999/xlink" width="38" height="32" viewBox="0 0 38 32">
<path fill="#444444" d="M37.418 28.356l-2.98-2.98c-0.087-0.087-0.203-0.113-0.317-0.066s-0.174 0.157-0.174 0.28v1.945h-3.324v-10.628c0-0.477-0.246-0.821-0.722-0.821h-5.696c-0.477 0-0.968 0.343-0.968 0.821v10.628h-0.738v-14.34c0-0.477-0.471-0.801-0.948-0.801h-5.696c-0.229 0-0.388 0.060-0.55 0.222s-0.192 0.35-0.192 0.579v14.341h-1.108v-17.125c0-0.477-0.328-0.972-0.805-0.972h-5.697c-0.229 0-0.46 0.145-0.622 0.307s-0.264 0.436-0.264 0.665v17.125h-1.847v-21.79h2.065c0.123 0 0.233-0.058 0.28-0.172s0.021-0.236-0.066-0.323l-2.98-2.975c-0.119-0.118-0.31-0.116-0.429 0.002l-2.979 2.981c-0.086 0.087-0.113 0.202-0.065 0.316s0.157 0.173 0.28 0.173h2.048v22.888c0 0.477 0.39 0.748 0.867 0.748h30.156v2.167c0 0.123 0.060 0.233 0.174 0.28s0.237 0.021 0.323-0.066l2.976-2.98c0.12-0.119 0.116-0.311-0.002-0.429zM12.159 27.537h-3.694v-16.25h3.694v16.25zM20.653 27.537h-3.694v-13.295h3.694v13.295zM28.778 27.537h-3.693v-9.602h3.692v9.602z"></path>
</svg>
