<?xml version="1.0" encoding="utf-8"?>
<!-- Generated by IcoMoon.io -->
<!DOCTYPE svg PUBLIC "-//W3C//DTD SVG 1.1//EN" "http://www.w3.org/Graphics/SVG/1.1/DTD/svg11.dtd">
<svg version="1.1" xmlns="http://www.w3.org/2000/svg" xmlns:xlink="http://www.w3.org/1999/xlink" width="16" height="16" viewBox="0 0 16 16">
<path fill="#444444" d="M10.601 8.017l4.85-4.788c0.721-0.714 0.73-1.878 0.018-2.602-0.715-0.724-1.879-0.73-2.602-0.018l-4.852 4.79-4.788-4.852c-0.712-0.724-1.879-0.73-2.6-0.018-0.723 0.714-0.731 1.878-0.018 2.602l4.788 4.852-4.85 4.788c-0.723 0.714-0.731 1.878-0.018 2.602 0.359 0.365 0.834 0.547 1.31 0.547 0.466 0 0.934-0.177 1.292-0.53l4.85-4.788 4.788 4.852c0.359 0.365 0.833 0.547 1.308 0.547 0.468 0 0.934-0.177 1.293-0.53 0.721-0.714 0.73-1.878 0.018-2.602l-4.788-4.853z"></path>
</svg>
