<?xml version="1.0" encoding="utf-8"?>
<!-- Generator: Adobe Illustrator 18.1.1, SVG Export Plug-In . SVG Version: 6.00 Build 0)  -->
<svg version="1.1" id="Calque_1" xmlns="http://www.w3.org/2000/svg" xmlns:xlink="http://www.w3.org/1999/xlink" x="0px" y="0px"
	 viewBox="0 0 512 512" enable-background="new 0 0 512 512" xml:space="preserve">
<g>
	<rect x="241.2" y="1.3" fill="#1E1E1C" width="29.5" height="238.1"/>
	<path fill="#1E1E1C" d="M255.9,511.3C120,511.3,9.4,400.7,9.4,264.8c0-95.9,56.6-183.9,144.2-224l12.3,26.7
		c-77.1,35.4-127,112.8-127,197.3c0,119.7,97.4,217.1,217.1,217.1c119.7,0,217.1-97.4,217.1-217.1c0-84.4-49.9-161.9-127-197.3
		l12.3-26.7c87.6,40.2,144.2,128.1,144.2,224C502.5,400.7,391.9,511.3,255.9,511.3z"/>
</g>
</svg>
