<?xml version="1.0" encoding="utf-8"?>
<!-- Generator: Adobe Illustrator 18.1.1, SVG Export Plug-In . SVG Version: 6.00 Build 0)  -->
<svg version="1.1" id="Calque_1" xmlns="http://www.w3.org/2000/svg" xmlns:xlink="http://www.w3.org/1999/xlink" x="0px" y="0px"
	 viewBox="0 0 512 512" enable-background="new 0 0 512 512" xml:space="preserve">
<g>
	<path fill="#1E1E1C" d="M415.6,478.1H3V33.6h506.7V384C509.7,435.8,467.5,478.1,415.6,478.1z M27.2,453.9h388.5
		c38.6,0,70-31.4,70-70V57.8H27.2V453.9z"/>
	<path fill="#1E1E1C" d="M400.4,431.4H80.9v-351H463v288.4C463,403.3,434.9,431.4,400.4,431.4z M105,407.2h295.4
		c21.2,0,38.5-17.3,38.5-38.5V104.5H105V407.2z"/>
	<rect x="54" y="127" fill="#1E1E1C" width="46.7" height="24.1"/>
	<rect x="54" y="204.9" fill="#1E1E1C" width="46.7" height="24.1"/>
	<rect x="54" y="282.7" fill="#1E1E1C" width="46.7" height="24.1"/>
	<rect x="54" y="360.5" fill="#1E1E1C" width="46.7" height="24.1"/>
	<path fill="#1E1E1C" d="M327.5,291.3c-19.5,0-35.4-15.9-35.4-35.4c0-19.5,15.9-35.4,35.4-35.4s35.4,15.9,35.4,35.4
		C362.9,275.4,347.1,291.3,327.5,291.3z M327.5,244.6c-6.2,0-11.3,5.1-11.3,11.3c0,6.2,5.1,11.3,11.3,11.3s11.3-5.1,11.3-11.3
		C338.8,249.6,333.7,244.6,327.5,244.6z"/>
	<path fill="#1E1E1C" d="M327.5,338c-45.3,0-82.1-36.8-82.1-82.1c0-45.3,36.8-82.1,82.1-82.1c45.3,0,82.1,36.8,82.1,82.1
		C409.6,301.1,372.8,338,327.5,338z M327.5,197.9c-32,0-58,26-58,58s26,58,58,58s58-26,58-58S359.5,197.9,327.5,197.9z"/>
</g>
</svg>
