<?xml version="1.0" encoding="utf-8"?>
<!-- Generated by IcoMoon.io -->
<!DOCTYPE svg PUBLIC "-//W3C//DTD SVG 1.1//EN" "http://www.w3.org/Graphics/SVG/1.1/DTD/svg11.dtd">
<svg version="1.1" xmlns="http://www.w3.org/2000/svg" xmlns:xlink="http://www.w3.org/1999/xlink" width="28" height="16" viewBox="0 0 28 16">
<path fill="#444444" d="M0.866 4.681l11.451 10.619c0.114 0.106 0.253 0.149 0.38 0.229 0.147 0.099 0.285 0.21 0.445 0.274 0.162 0.065 0.328 0.084 0.497 0.117 0.173 0.035 0.339 0.080 0.516 0.080 0.162 0 0.315-0.045 0.473-0.071 0.184-0.035 0.363-0.054 0.54-0.127 0.153-0.063 0.287-0.171 0.43-0.264 0.13-0.084 0.274-0.132 0.391-0.238l11.453-10.619c1.095-1.015 1.158-2.724 0.145-3.817-0.534-0.572-1.255-0.864-1.981-0.864-0.659 0-1.316 0.238-1.836 0.719l-9.617 8.917-9.617-8.917c-0.518-0.482-1.177-0.719-1.836-0.719-0.726 0-1.447 0.292-1.983 0.864-1.011 1.093-0.948 2.802 0.149 3.817z"></path>
</svg>
