<?xml version="1.0" encoding="utf-8"?>
<!-- Generator: Adobe Illustrator 16.0.3, SVG Export Plug-In . SVG Version: 6.00 Build 0)  -->
<!DOCTYPE svg PUBLIC "-//W3C//DTD SVG 1.1//EN" "http://www.w3.org/Graphics/SVG/1.1/DTD/svg11.dtd">
<svg version="1.1" id="Calque_1" xmlns="http://www.w3.org/2000/svg" xmlns:xlink="http://www.w3.org/1999/xlink" x="0px" y="0px"
	 width="512px" height="512px" viewBox="-247 -248 512 512" enable-background="new -247 -248 512 512" xml:space="preserve">
<g>
	<path fill="#444444" d="M264.875,44.279c0-0.308-0.057-0.588-0.112-0.84c-0.056-0.476-0.168-0.924-0.28-1.344
		c-0.336-1.287-0.783-2.463-1.399-3.583l-0.168-0.224L158.611-151.759c-2.575-4.871-7.754-7.908-13.324-7.908H79.25
		c-8.342,0-15.201,6.802-15.201,15.2S70.88-129.28,79.25-129.28h57.078l87.732,159.899H90.588c-8.343,0-15.173,6.83-15.173,15.172
		c0,36.728-29.813,66.513-66.499,66.513c-36.644,0-66.513-29.785-66.513-66.513c0-8.342-6.788-15.172-15.186-15.172h-133.389
		l87.718-159.899h57.05c8.398,0,15.187-6.789,15.187-15.187s-6.788-15.2-15.187-15.2h-66.05c-5.529,0-10.638,3.037-13.325,7.908
		L-245.152,38.568c0,0,0,0.057-0.056,0.057c-0.308,0.56-0.574,1.119-0.77,1.651c-0.21,0.476-0.406,1.092-0.546,1.651
		c-0.084,0.393-0.196,0.784-0.266,1.232c-0.084,0.363-0.14,0.756-0.14,1.119c-0.084,0.532-0.14,1.064-0.14,1.568V222.15
		c0,8.397,6.788,15.199,15.186,15.199h481.641c8.342,0,15.173-6.802,15.173-15.199V45.848
		C264.931,45.344,264.875,44.812,264.875,44.279z M234.529,206.922h-451.212V61.076h129.875
		c7.32,46.301,47.449,81.713,95.696,81.713c48.219,0,88.361-35.412,95.752-81.713h129.861v145.846h-0.028H234.529z"/>
	<path fill="#444444" d="M90.027-51.136L19.666,19.239c-0.434,0.406-0.813,0.714-1.26,1.092c-1.092,0.854-2.295,1.567-3.555,2.142
		c-1.064,0.42-2.184,0.812-3.304,0.951c-0.854,0.141-1.722,0.252-2.604,0.252c-0.952,0-1.861-0.111-2.785-0.252
		c-1.288-0.307-2.436-0.588-3.555-1.203c-1.092-0.49-2.184-1.148-3.122-1.918c-0.434-0.377-0.868-0.686-1.288-1.119l-70.347-70.348
		c-5.935-5.991-5.935-15.564,0-21.555c5.935-5.906,15.564-5.906,21.499,0l44.37,44.398v-177.842c0-8.342,6.858-15.187,15.201-15.187
		c8.398,0,15.187,6.816,15.187,15.187v177.842L68.5-72.719c5.907-5.906,15.593-5.906,21.5,0c6.074,5.963,6.074,15.564,0.084,21.527
		L90.027-51.136z"/>
</g>
</svg>
