<?xml version="1.0" encoding="utf-8"?>
<!-- Generator: Adobe Illustrator 16.0.3, SVG Export Plug-In . SVG Version: 6.00 Build 0)  -->
<!DOCTYPE svg PUBLIC "-//W3C//DTD SVG 1.1//EN" "http://www.w3.org/Graphics/SVG/1.1/DTD/svg11.dtd">
<svg version="1.1" id="Calque_1" xmlns="http://www.w3.org/2000/svg" xmlns:xlink="http://www.w3.org/1999/xlink" x="0px" y="0px"
	 width="512px" height="512px" viewBox="-251.5 -248 512 512" enable-background="new -251.5 -248 512 512" xml:space="preserve">
<path fill="#444444" d="M64.586-232.356L-127.53-25.223c-1.922,2.079-2.688,4.579-4.125,6.875c-1.797,2.656-3.781,5.188-4.969,8.11
	c-1.172,2.906-1.531,5.953-2.109,8.984c-0.641,3.172-1.438,6.141-1.438,9.344c0,2.984,0.828,5.703,1.281,8.516
	c0.641,3.359,0.984,6.563,2.297,9.767c1.125,2.719,3.078,5.156,4.781,7.781c1.531,2.313,2.359,4.938,4.282,7.031L64.586,248.412
	c18.376,19.751,49.252,20.876,69.003,2.563c10.407-9.595,15.626-22.657,15.626-35.752c0-11.938-4.25-23.813-12.938-33.251
	L-25.089,8.028L136.214-165.9c8.688-9.375,12.938-21.282,12.938-33.22c0-13.11-5.281-26.173-15.626-35.861
	c-19.751-18.345-50.689-17.157-68.94,2.656V-232.356z"/>
</svg>
