<?xml version="1.0" encoding="utf-8"?>
<!-- Generator: Adobe Illustrator 16.0.3, SVG Export Plug-In . SVG Version: 6.00 Build 0)  -->
<!DOCTYPE svg PUBLIC "-//W3C//DTD SVG 1.1//EN" "http://www.w3.org/Graphics/SVG/1.1/DTD/svg11.dtd">
<svg version="1.1" id="Calque_1" xmlns="http://www.w3.org/2000/svg" xmlns:xlink="http://www.w3.org/1999/xlink" x="0px" y="0px"
	 width="512px" height="512px" viewBox="-248 -248 512 512" enable-background="new -248 -248 512 512" xml:space="preserve">
<g>
	<path fill="#444444" d="M-136.79,263.091h-109.327v-364.416h109.327V263.091z M264.063,263.091H154.721V68.429
		c0-50.72-18.047-75.985-53.893-75.985c-28.378,0-46.363,14.126-55.449,42.442c0,45.989,0,228.174,0,228.174H-63.916
		c0,0,1.462-327.963,0-364.416h86.27l6.658,72.874h2.271c22.435-36.453,58.219-61.143,107.319-61.143
		c37.371,0,67.585,10.377,90.642,36.483c23.244,26.122,34.757,61.174,34.757,110.431V263.06L264.063,263.091z"/>
	<path fill="#444444" d="M-191.477-247.058c31.163,0,56.476,24.458,56.476,54.671c0,30.198-25.313,54.64-56.476,54.64
		c-31.147,0-56.46-24.473-56.46-54.671c0-30.214,25.313-54.687,56.46-54.687V-247.058z"/>
</g>
</svg>
