<?xml version="1.0" encoding="utf-8"?>
<!-- Generator: Adobe Illustrator 16.0.3, SVG Export Plug-In . SVG Version: 6.00 Build 0)  -->
<!DOCTYPE svg PUBLIC "-//W3C//DTD SVG 1.1//EN" "http://www.w3.org/Graphics/SVG/1.1/DTD/svg11.dtd">
<svg version="1.1" id="Calque_1" xmlns="http://www.w3.org/2000/svg" xmlns:xlink="http://www.w3.org/1999/xlink" x="0px" y="0px"
	 width="512px" height="512px" viewBox="-247 -248 512 512" enable-background="new -247 -248 512 512" xml:space="preserve">
<path fill="#444444" d="M-164.864,230.284V133.87h-51.192c-16.946,0-30.731-13.785-30.731-30.718v-286.731
	c0-16.946,13.785-30.704,30.731-30.704h450.551c16.933,0,30.718,13.785,30.718,30.704v286.731c0,16.96-13.785,30.718-30.718,30.718
	H-68.477l-96.427,96.414H-164.864z M-216.056-193.836c-5.671,0-10.257,4.586-10.257,10.257v286.731
	c0,5.672,4.586,10.258,10.257,10.258h71.693v67.486l67.46-67.486h311.479c5.672,0,10.23-4.586,10.23-10.258v-286.731
	c0-5.644-4.559-10.257-10.23-10.257h-450.604H-216.056z"/>
</svg>
