<?xml version="1.0" encoding="utf-8"?>
<!-- Generator: Adobe Illustrator 16.0.3, SVG Export Plug-In . SVG Version: 6.00 Build 0)  -->
<!DOCTYPE svg PUBLIC "-//W3C//DTD SVG 1.1//EN" "http://www.w3.org/Graphics/SVG/1.1/DTD/svg11.dtd">
<svg version="1.1" id="Calque_1" xmlns="http://www.w3.org/2000/svg" xmlns:xlink="http://www.w3.org/1999/xlink" x="0px" y="0px"
	 width="512px" height="512px" viewBox="-250 -248 512 512" enable-background="new -250 -248 512 512" xml:space="preserve">
<g>
	<path fill="#444444" d="M79.185-248h-269.938v512H203.06v-388.094L79.185-248L79.185-248z M84.935-214.406l84.531,84.547H84.935
		V-214.406z M-171.065,244.313v-472.594H65.216v118.141h118.156v354.453H-171.065z"/>
	<path fill="#444444" d="M-106.597,173.938L-106.597,173.938c-4.063,0-8-1.375-11.328-3.875
		c-12.156-9.094-13.781-19.281-13.047-26.188c2.109-19.063,25.656-39,70.016-59.25C-43.394,46.063-26.69-1.469-16.706-41.188
		c-11.609-25.406-22.969-58.328-14.688-77.656c2.875-6.781,8-11.563,14.719-13.797c2.656-0.891,5.313-1.375,7.781-1.375
		c5.859,0,11.172,2.594,14.813,7.266c3.453,4.375,13.859,17.625-1.766,83.484C19.966-10.719,42.278,22.5,63.622,45.188
		c15.375-2.813,28.594-4.156,39.313-4.156c18.313,0,29.375,4.281,33.875,13.094c3.813,7.25,2.25,15.813-4.5,25.25
		c-6.5,9.125-15.5,13.938-26,13.938c-14.25,0-30.75-8.969-49.25-26.719C23.903,73.5-14.878,85.875-46.206,99.563
		c-9.766,20.781-19.109,37.5-27.875,49.781c-12,16.719-22.297,24.594-32.547,24.594H-106.597z M-75.456,114
		c-25,14.063-35.203,25.563-35.938,32.063c-0.094,1.063-0.453,3.938,5.063,8.125C-104.581,153.625-94.394,148.969-75.456,114z
		 M82.185,62.25c9.5,7.344,17.906,11.344,24.156,11.344c2.813,0,6.344-0.625,9.969-5.688c1.75-2.438,2.438-4,2.688-4.844
		c-1.469-0.75-5.688-2.375-16-2.375C97.06,60.688,90.06,61.25,82.185,62.25L82.185,62.25z M-3.331-14.969
		C-11.737,13.984-22.722,45.219-34.628,73.5c24.453-9.531,51.016-17.75,75.969-23.625C25.56,31.563,9.825,8.672-3.331-14.969z
		 M-9.253-114.234c-0.281,0.063-0.672,0.094-1.188,0.281c-1.078,0.422-2.047,1.031-2.844,2.844c-2.969,7.047-0.609,20.422,4,34.797
		C-5.472-101.063-7.487-111.578-9.253-114.234z"/>
</g>
</svg>
