<?xml version="1.0" encoding="utf-8"?>
<!-- Generator: Adobe Illustrator 18.1.1, SVG Export Plug-In . SVG Version: 6.00 Build 0)  -->
<svg version="1.1" id="Calque_1" xmlns="http://www.w3.org/2000/svg" xmlns:xlink="http://www.w3.org/1999/xlink" x="0px" y="0px"
	 viewBox="0 0 512 512" enable-background="new 0 0 512 512" xml:space="preserve">
<g>
	<path fill="#1E1E1C" d="M294.3,58.5v25.3h189.5v48.1H29V83.8h265.3V58.5H3.7v353.8H29V157.1h454.9v258c0,26.3-21.4,47.8-47.8,47.8
		H3.7v25.3h432.4c40.3,0,73-32.7,73-73V58.5H294.3z"/>
	<rect x="243.8" y="23.8" fill="#1E1E1C" width="25.3" height="108.9"/>
	<path fill="#1E1E1C" d="M256.4,411.9h-25.3c0-19.8-16.1-35.9-35.9-35.9h-91.8c-19.8,0-36,16.1-36,35.9H42.2
		c0-33.7,27.5-61.2,61.2-61.2h91.8C229,350.7,256.4,378.2,256.4,411.9z M150.6,332.5c-22.6,0-41.4-8.4-54.4-24.3
		c-11.2-13.5-17.3-31.6-17.3-50.8c0-23.4,7.4-43.1,21.4-56.8c12.8-12.5,30.7-19.4,50.3-19.4c43.3,0,73.6,31.1,73.6,75.8
		c0,19.8-6.3,38.1-17.7,51.6C193.2,324.2,173.9,332.5,150.6,332.5z M150.6,206.4c-13,0-24.6,4.3-32.6,12.2l0,0
		c-9.1,8.9-13.8,22.3-13.8,38.7c0,13.4,4.1,25.7,11.5,34.7c8.4,10.1,19.8,15.1,34.9,15.1c15.6,0,28.3-5.2,36.6-15
		c7.5-8.9,11.7-21.5,11.7-35.3C198.9,226.2,179.9,206.4,150.6,206.4z"/>
	<path fill="#1E1E1C" d="M294.4,204.9H446v25.3H294.4V204.9z"/>
	<path fill="#1E1E1C" d="M294.4,268.1H409v25.3H294.4V268.1z"/>
	<path fill="#1E1E1C" d="M294.4,331.3H446v25.3H294.4V331.3z"/>
</g>
</svg>
