<?xml version="1.0" encoding="utf-8"?>
<!-- Generator: Adobe Illustrator 16.0.3, SVG Export Plug-In . SVG Version: 6.00 Build 0)  -->
<!DOCTYPE svg PUBLIC "-//W3C//DTD SVG 1.1//EN" "http://www.w3.org/Graphics/SVG/1.1/DTD/svg11.dtd">
<svg version="1.1" id="Calque_1" xmlns="http://www.w3.org/2000/svg" xmlns:xlink="http://www.w3.org/1999/xlink" x="0px" y="0px"
	 width="512px" height="512px" viewBox="-248 -248 512 512" enable-background="new -248 -248 512 512" xml:space="preserve">
<path fill="#444444" d="M260.91-127.61c-2.438,14.265-4.063,28.795-7.529,42.81C243.1-43.662,224.852-5.805,202.102,29.803
	C150.637,110.297,83.734,174.605-0.338,220.602c-35.263,19.217-72.214,34.123-112.086,40.623
	c-20.405,3.313-41.013,4.875-61.012-2.406c-5.312-1.906-10.718-4.844-14.827-8.656c-13.843-12.936-27.482-26.154-40.404-39.998
	c-9.64-10.311-14.077-23.592-16.546-37.434c0-2.75,0-5.563,0-8.313c9.406-44.561,41.982-69.121,78.683-89.244
	c20.389-11.156,40.794-7.75,58.59,7.469c7.718,6.625,14.999,13.779,22.108,21.092c4.187,4.313,8.734,5.563,14.437,4.438
	c19.295-3.844,35.669-13.75,51.418-24.811C24.566,52.176,61.924,14.068,89.234-33.225c5.688-9.859,9.125-21.046,13.375-31.748
	c2.625-6.515,0.563-11.734-4.5-16.796c-8.531-8.437-16.75-17.312-24.248-26.686c-11.5-14.327-14-30.717-6.688-47.575
	c12.936-29.92,31.748-55.996,56.309-77.338c21.248-18.468,46.09-19.546,68.715-2.75c13.967,10.359,25.654,23.842,38.277,35.998
	c2.656,2.563,4.688,5.75,7.438,8.281c13.813,12.968,21.498,28.67,22.092,47.747c0.031,1.313,0.656,2.625,1.031,3.906
	c-0.063,4.218-0.063,8.375-0.063,12.577H260.91z M237.318-133.125c0.719-16.499-3.344-30.811-15.904-42.653
	c-13.25-12.5-24.563-27.217-38.467-38.904c-17.467-14.718-33.092-13.405-49.34,2.656c-17,16.795-31.311,35.935-42.717,57.027
	c-7.969,14.812-6.406,25.499,4.938,38.029c6.156,6.89,12.904,13.249,19.467,19.811c7.375,7.39,11.25,15.999,10.938,26.686
	c-0.438,15.046-5.938,28.482-12.906,41.31C86.172,20.662,48.424,61.205,3.256,95.109c-19.077,14.344-39.169,27.061-62.402,33.842
	c-18.811,5.438-35.091,2.469-47.903-13.654c-3.859-4.844-8.859-8.813-13.374-13.125c-11.578-11.125-24.733-13.217-38.716-5.5
	c-21.53,11.938-40.123,27.467-54.168,47.811c-12.03,17.436-11.874,33.373,1.594,49.746c9.921,12.125,22.077,22.373,32.842,33.842
	c9.343,9.967,21.045,12.592,33.904,12.779c24.842,0.438,48.637-5.029,71.901-12.998c56.512-19.438,106.149-50.621,151.239-89.463
	C136.795,87.768,183.479,28.084,214.82-42.975c12.592-28.686,21.779-58.402,22.561-90.088L237.318-133.125z"/>
</svg>
