<?xml version="1.0" encoding="utf-8"?>
<!-- Generator: Adobe Illustrator 16.0.3, SVG Export Plug-In . SVG Version: 6.00 Build 0)  -->
<!DOCTYPE svg PUBLIC "-//W3C//DTD SVG 1.1//EN" "http://www.w3.org/Graphics/SVG/1.1/DTD/svg11.dtd">
<svg version="1.1" id="Calque_1" xmlns="http://www.w3.org/2000/svg" xmlns:xlink="http://www.w3.org/1999/xlink" x="0px" y="0px"
	 width="512px" height="512px" viewBox="-249 -248 512 512" enable-background="new -249 -248 512 512" xml:space="preserve">
<g>
	<path fill="#444444" d="M6.944,264L-214.79,136v-255.969L6.944-248l221.703,128v256L6.944,264z M-170.696,110.531L6.913,213.063
		L184.46,110.531V-94.5L6.913-197.031L-170.696-94.5V110.531z"/>
	<path fill="#444444" d="M17.147,25.656c6.844,0,12.75,0.531,17.813,4.156c6.188,4.438,9.5,12.125,9.156,20.438
		c-0.906,13.906-9.781,22.844-24.891,22.844h-49.156V25.688h47.078V25.656z M10.616-57.594c15.406,0,25.188,9.781,24.906,24.922
		C35.21-18.781,25.71-10.469,10.616-10.469h-40.578v-47.094h40.578V-57.594z M79.022-34.203c0-38.828-27.25-61.313-65.172-61.313
		h-87.969V111.5h96.281c41.453,0,65.734-24.844,65.734-61.313c0-21.313-10.313-38.219-29.594-46.219
		C71.272-4,79.022-19.141,79.022-34.234V-34.203z"/>
</g>
</svg>
