<?xml version="1.0" encoding="utf-8"?>
<!-- Generator: Adobe Illustrator 16.0.3, SVG Export Plug-In . SVG Version: 6.00 Build 0)  -->
<!DOCTYPE svg PUBLIC "-//W3C//DTD SVG 1.1//EN" "http://www.w3.org/Graphics/SVG/1.1/DTD/svg11.dtd">
<svg version="1.1" id="Calque_1" xmlns="http://www.w3.org/2000/svg" xmlns:xlink="http://www.w3.org/1999/xlink" x="0px" y="0px"
	 width="512px" height="512px" viewBox="-252 -248 512 512" enable-background="new -252 -248 512 512" xml:space="preserve">
<path fill="#444444" d="M-60.169-2.578C27.643-24.527,69.198-77.861,69.198-128.023c0-39.993-25.871-65.878-75.268-65.878
	c-29.775,0-65.832,10.201-101.122,39.196c-3.14-7.842-16.481-37.634-20.387-47.038c39.993-31.385,90.952-46.257,130.914-46.257
	c65.863,0,132.476,30.588,132.476,112.104c0,71.346-59.552,132.522-135.6,159.94l-6.28,110.542h-46.257L-60.169-2.609V-2.578z
	 M-64.872,238.909v-46.272h54.1c15.685,0,21.949,6.28,21.949,24.339v47.023h-54.099C-57.826,263.999-64.872,256.969-64.872,238.909z
	"/>
</svg>
