<?xml version="1.0" encoding="utf-8"?>
<!-- Generator: Adobe Illustrator 16.0.3, SVG Export Plug-In . SVG Version: 6.00 Build 0)  -->
<!DOCTYPE svg PUBLIC "-//W3C//DTD SVG 1.1//EN" "http://www.w3.org/Graphics/SVG/1.1/DTD/svg11.dtd">
<svg version="1.1" id="Calque_1" xmlns="http://www.w3.org/2000/svg" xmlns:xlink="http://www.w3.org/1999/xlink" x="0px" y="0px"
	 width="512px" height="512px" viewBox="-249.5 -248 512 512" enable-background="new -249.5 -248 512 512" xml:space="preserve">
<path fill="#444444" d="M216.044-44.156c0-82.375-50.219-153.25-122.531-185.406c48.375,46.625,78.344,111.297,78.344,182.781
	c-11.906,0-21.906-9.063-23-20.969c-6.781-74.875-49.594-139.641-111.438-178.016C27.263-247.234,16.919-248,6.325-248
	c-23.484,0-46.047,3.813-67.141,10.75c94.391,14.875,166.453,94.469,166.453,190.469h-0.344c-11.656,0-21.5-8.734-22.906-20.328
	C72.044-152.281-2.472-218.375-92.878-218.375c-3.422,0-6.844,0.141-10.234,0.328c-28.906,17.219-53.156,41.078-70.563,69.344
	c22.328-16.797,50.328-26.75,80.766-26.75c73.094,0,132.359,57.594,132.359,128.672h-1.063c-11.125,0-20.703-7.906-22.688-18.813
	c-9.156-50.281-54.313-88.422-108.609-88.422c-57.125,0-104.125,42.234-109.734,96.391c22.375,0,43.359-10.469,57.125-28.063
	c12.063-15.469,31.141-25.453,52.609-25.453c36.547,0,66.172,28.828,66.172,64.359c0,35.516-29.625,64.344-66.172,64.344
	c-21.5,0-40.547-9.984-52.609-25.406c-13.766-17.594-34.75-28.063-57.125-28.063h-0.313C-193.237,74.875,6.294,184.438,6.294,264
	c0-113.75,209.656-195.5,209.656-308.094L216.044-44.156z"/>
</svg>
