<?xml version="1.0" encoding="utf-8"?>
<!-- Generator: Adobe Illustrator 18.1.1, SVG Export Plug-In . SVG Version: 6.00 Build 0)  -->
<svg version="1.1" id="Calque_1" xmlns="http://www.w3.org/2000/svg" xmlns:xlink="http://www.w3.org/1999/xlink" x="0px" y="0px"
	 viewBox="0 0 595.3 841.9" enable-background="new 0 0 595.3 841.9" xml:space="preserve">
<path d="M434.5,444.8c-87.9,0-160.8,72.8-160.8,160.8s72.8,160.8,160.8,160.8s160.8-72.8,160.8-160.8S522.4,444.8,434.5,444.8z
	 M527.5,620.6h-67.8v45.2c0,12.6-10,22.6-22.6,22.6h-22.6v-67.8h-45.2c-12.6,0-22.6-10-22.6-22.6v-22.6h67.8v-45.2
	c0-12.6,10-22.6,22.6-22.6h22.6v67.8h45.2c12.6,0,22.6,10,22.6,22.6L527.5,620.6L527.5,620.6z M311.5,294.1h148.2V377
	c0,25.1,20.1,45.2,45.2,45.2V246.4L311.5,78.1H0v640.5h251.2c0-25.1-20.1-45.2-45.2-45.2H45.2V123.3h218.5v123.1
	C263.7,271.5,283.8,294.1,311.5,294.1z M311.5,138.4l125.6,108H311.5V138.4z"/>
</svg>
