<?xml version="1.0" encoding="utf-8"?>
<!-- Generator: Adobe Illustrator 18.1.1, SVG Export Plug-In . SVG Version: 6.00 Build 0)  -->
<svg version="1.1" id="Calque_1" xmlns="http://www.w3.org/2000/svg" xmlns:xlink="http://www.w3.org/1999/xlink" x="0px" y="0px"
	 viewBox="0 0 512 512" enable-background="new 0 0 512 512" xml:space="preserve">
<g>
	<path fill="#1E1E1C" d="M182.7,56.1c19.1-18.8,46.1-29.1,76-29.1c66.9,0,111.7,46.5,111.7,115.7c0,30.8-9.6,59.1-27,79.6
		c-19.8,23.4-49.1,35.7-84.8,35.7c-34.7,0-62.3-12.1-82-36.1c-17-20.7-26.4-48.5-26.4-78.4C150.3,107.1,161.5,76.8,182.7,56.1
		 M258.7,284.8c43.8,0,80.1-15.6,105.1-45.1c21.4-25.4,33.3-59.8,33.3-96.9C397.1,59,340.2,0.4,258.7,0.4c-36.9,0-70.5,13-94.7,36.7
		c-26.4,25.8-40.4,62.7-40.4,106.5c0,36,11.6,69.9,32.5,95.3C180.8,268.9,216.3,284.8,258.7,284.8 M340.5,311.3H172.3
		c-63.8,0-115.7,51.9-115.7,115.7v5.4h26.6v-5.4c0-49.1,40-89,89-89h168.2c49.1,0,89,39.9,89,89v58.7H56.7v26.6h399.6v-85.3
		C456.2,363.1,404.3,311.3,340.5,311.3"/>
</g>
</svg>
