<?xml version="1.0" encoding="utf-8"?>
<!-- Generator: Adobe Illustrator 16.0.3, SVG Export Plug-In . SVG Version: 6.00 Build 0)  -->
<!DOCTYPE svg PUBLIC "-//W3C//DTD SVG 1.1//EN" "http://www.w3.org/Graphics/SVG/1.1/DTD/svg11.dtd">
<svg version="1.1" id="Calque_1" xmlns="http://www.w3.org/2000/svg" xmlns:xlink="http://www.w3.org/1999/xlink" x="0px" y="0px"
	 width="512px" height="512px" viewBox="-254 -248 512 512" enable-background="new -254 -248 512 512" xml:space="preserve">
<g>
	<path fill="#444444" d="M58.943-190.844c0,31.578-25.594,57.156-57.156,57.156s-57.156-25.609-57.156-57.156
		c0-31.594,25.594-57.156,57.156-57.156S58.943-222.406,58.943-190.844z"/>
	<path fill="#444444" d="M58.943,8c0,31.563-25.594,57.156-57.156,57.156S-55.369,39.563-55.369,8
		c0-31.578,25.594-57.156,57.156-57.156S58.943-23.547,58.943,8z"/>
	<path fill="#444444" d="M58.943,206.844C58.943,238.438,33.35,264,1.787,264s-57.156-25.594-57.156-57.156
		c0-31.594,25.594-57.156,57.156-57.156S58.943,175.313,58.943,206.844z"/>
</g>
</svg>
