<?xml version="1.0" encoding="utf-8"?>
<!-- Generator: Adobe Illustrator 16.0.3, SVG Export Plug-In . SVG Version: 6.00 Build 0)  -->
<!DOCTYPE svg PUBLIC "-//W3C//DTD SVG 1.1//EN" "http://www.w3.org/Graphics/SVG/1.1/DTD/svg11.dtd">
<svg version="1.1" id="Calque_1" xmlns="http://www.w3.org/2000/svg" xmlns:xlink="http://www.w3.org/1999/xlink" x="0px" y="0px"
	 width="512px" height="512px" viewBox="-243 -248 512 512" enable-background="new -243 -248 512 512" xml:space="preserve">
<path fill="#444444" d="M246.105-17.493h-413.154l92.223-91.363c8.636-8.707,8.636-22.368,0-31.085
	c-8.717-8.687-22.823-8.474-31.5,0.223L-235.144-10.839c-5.177,4.328-8.504,10.972-8.504,18.061c0,2.669,0.476,5.279,1.365,7.736
	c0.85,3.863,2.69,7.544,5.693,10.598l130.245,130.205c8.676,8.695,22.783,8.695,31.52,0c8.636-8.697,8.636-24.068,0-32.724
	L-168.707,27.9h414.853c12.216,0,22.206-10.395,22.206-22.691C268.352-7.098,258.361-17.493,246.105-17.493z"/>
</svg>
