<?xml version="1.0" encoding="utf-8"?>
<!-- Generator: Adobe Illustrator 16.0.3, SVG Export Plug-In . SVG Version: 6.00 Build 0)  -->
<!DOCTYPE svg PUBLIC "-//W3C//DTD SVG 1.1//EN" "http://www.w3.org/Graphics/SVG/1.1/DTD/svg11.dtd">
<svg version="1.1" id="Calque_1" xmlns="http://www.w3.org/2000/svg" xmlns:xlink="http://www.w3.org/1999/xlink" x="0px" y="0px"
	 width="512px" height="512px" viewBox="-251.5 -248 512 512" enable-background="new -251.5 -248 512 512" xml:space="preserve">
<path fill="#444444" d="M-55.559,248.351L136.562,41.213c1.938-2.094,2.688-4.563,4.125-6.875c1.813-2.688,3.813-5.188,5.001-8.126
	c1.188-2.891,1.5-5.938,2.094-8.969c0.656-3.142,1.438-6.079,1.438-9.313c0-2.984-0.844-5.704-1.281-8.547
	c-0.625-3.359-1-6.563-2.313-9.766c-1.125-2.719-3.063-5.188-4.751-7.766c-1.563-2.313-2.375-4.969-4.313-7.047L-55.559-232.413
	c-18.345-19.735-49.222-20.892-69.004-2.594c-10.36,9.61-15.61,22.658-15.61,35.783c0,11.907,4.25,23.814,12.954,33.221
	L34.056,7.992L-127.22,181.909c-8.704,9.375-12.954,21.313-12.954,33.221c0,13.126,5.282,26.188,15.61,35.877
	c19.783,18.282,50.706,17.157,69.004-2.688V248.351z"/>
</svg>
