<?xml version="1.0" encoding="utf-8"?>
<!-- Generator: Adobe Illustrator 18.1.1, SVG Export Plug-In . SVG Version: 6.00 Build 0)  -->
<svg version="1.1" id="Calque_1" xmlns="http://www.w3.org/2000/svg" xmlns:xlink="http://www.w3.org/1999/xlink" x="0px" y="0px"
	 viewBox="0 0 512 512" enable-background="new 0 0 512 512" xml:space="preserve">
<g>
	<path fill="#1E1E1C" d="M55.1,308.5c-28.9,0-52.4-23.5-52.4-52.4s23.5-52.4,52.4-52.4c28.9,0,52.4,23.5,52.4,52.4
		S84,308.5,55.1,308.5z M55.1,221.2c-19.3,0-34.9,15.7-34.9,34.9c0,19.3,15.7,34.9,34.9,34.9c19.3,0,34.9-15.7,34.9-34.9
		C90,236.9,74.4,221.2,55.1,221.2z"/>
	<g>
		<circle fill="#1E1E1C" cx="456.7" cy="256.1" r="43.7"/>
		<path fill="#1E1E1C" d="M456.7,308.5c-28.9,0-52.4-23.5-52.4-52.4s23.5-52.4,52.4-52.4c28.9,0,52.4,23.5,52.4,52.4
			S485.6,308.5,456.7,308.5z M456.7,221.2c-19.3,0-34.9,15.7-34.9,34.9c0,19.3,15.7,34.9,34.9,34.9c19.3,0,34.9-15.7,34.9-34.9
			C491.7,236.9,476,221.2,456.7,221.2z"/>
	</g>
	<path fill="#1E1E1C" d="M255.9,308.5c-28.9,0-52.4-23.5-52.4-52.4s23.5-52.4,52.4-52.4c28.9,0,52.4,23.5,52.4,52.4
		S284.8,308.5,255.9,308.5z M255.9,221.2c-19.3,0-34.9,15.7-34.9,34.9c0,19.3,15.7,34.9,34.9,34.9c19.3,0,34.9-15.7,34.9-34.9
		C290.8,236.9,275.2,221.2,255.9,221.2z"/>
	<rect x="98.8" y="247.4" fill="#1E1E1C" width="113.5" height="17.5"/>
	<rect x="292.9" y="247.4" fill="#1E1E1C" width="113.5" height="17.5"/>
</g>
</svg>
