<?xml version="1.0" encoding="utf-8"?>
<!-- Generator: Adobe Illustrator 16.0.3, SVG Export Plug-In . SVG Version: 6.00 Build 0)  -->
<!DOCTYPE svg PUBLIC "-//W3C//DTD SVG 1.1//EN" "http://www.w3.org/Graphics/SVG/1.1/DTD/svg11.dtd">
<svg version="1.1" id="Calque_1" xmlns="http://www.w3.org/2000/svg" xmlns:xlink="http://www.w3.org/1999/xlink" x="0px" y="0px"
	 width="512px" height="512px" viewBox="-248 -248 512 512" enable-background="new -248 -248 512 512" xml:space="preserve">
<g>
	<path fill="#444444" d="M259.107,234.277L81.127,51.049c24.899-31.475,39.926-71.167,39.926-114.451
		c0-101.924-82.632-184.525-184.525-184.525c-101.893,0-184.525,82.602-184.525,184.525s82.633,184.525,184.525,184.525
		c46.034,0,88.022-16.996,120.387-44.863l177.074,182.355c3.437,3.529,7.998,5.311,12.559,5.311c4.374,0,8.811-1.625,12.153-4.967
		c6.904-6.717,7.092-17.809,0.406-24.744V234.277z M-63.472,86.195c-82.477,0-149.566-67.09-149.566-149.566
		s67.09-149.566,149.566-149.566c82.476,0,149.567,67.09,149.567,149.566S19.004,86.195-63.472,86.195z"/>
</g>
</svg>
