<?xml version="1.0" encoding="utf-8"?>
<!-- Generator: Adobe Illustrator 18.1.1, SVG Export Plug-In . SVG Version: 6.00 Build 0)  -->
<svg version="1.1" id="Calque_1" xmlns="http://www.w3.org/2000/svg" xmlns:xlink="http://www.w3.org/1999/xlink" x="0px" y="0px"
	 viewBox="0 0 512 512" enable-background="new 0 0 512 512" xml:space="preserve">
<g>
	<path fill="#1F1F1D" d="M510.6,356.4H358.2c-42,0-76.2-34.2-76.2-76.2s34.2-76.2,76.2-76.2h152.4V356.4z M358.2,229.7
		c-27.8,0-50.5,22.8-50.5,50.5c0,27.8,22.8,50.5,50.5,50.5h127.4V229.7H358.2z"/>
	<path fill="#1F1F1D" d="M360.3,268.1c6.4,0,11.4,5,11.4,11.4c0,6.4-5,11.4-11.4,11.4s-11.4-5-11.4-11.4
		C349,273.8,353.9,268.1,360.3,268.1 M360.3,243.2c-20.6,0-37,16.4-37,37s16.4,37,37,37c20.6,0,37-16.4,37-37S381,243.2,360.3,243.2
		L360.3,243.2z"/>
	<path fill="#1F1F1D" d="M400.2,127.1h-25.6V90.8H56.4c-16.4,0-29.2,12.8-29.2,29.2v5.7H1.5V120c0-29.9,24.2-54.8,54.8-54.8h343.9
		V127.1z"/>
	<polygon fill="#1F1F1D" points="27.2,367.8 1.5,367.8 1.5,114.3 484.9,114.3 484.9,229.7 459.3,229.7 459.3,139.2 27.2,139.2 	"/>
	<path fill="#1F1F1D" d="M383.8,446.1H1.5v-25.6h382.3c42,0,76.2-34.2,76.2-76.2v-12.8h25.6v12.8
		C484.9,400.5,439.4,446.1,383.8,446.1z"/>
</g>
</svg>
