<?xml version="1.0" encoding="utf-8"?>
<!-- Generator: Adobe Illustrator 16.0.3, SVG Export Plug-In . SVG Version: 6.00 Build 0)  -->
<!DOCTYPE svg PUBLIC "-//W3C//DTD SVG 1.1//EN" "http://www.w3.org/Graphics/SVG/1.1/DTD/svg11.dtd">
<svg version="1.1" id="Calque_1" xmlns="http://www.w3.org/2000/svg" xmlns:xlink="http://www.w3.org/1999/xlink" x="0px" y="0px"
	 width="512px" height="512px" viewBox="-229.5 -248 512 512" enable-background="new -229.5 -248 512 512" xml:space="preserve">
<path fill="#444444" d="M282.331,10.229c0.075-0.334,0.038-0.683,0.019-1.021c0.057-0.376,0.235-0.724,0.235-1.119
	s-0.179-0.738-0.235-1.114c0.02-0.339,0.057-0.682-0.019-1.021c-0.057-0.357-0.244-0.705-0.376-1.039
	c-0.244-0.79-0.536-1.514-0.95-2.224c-0.122-0.272-0.179-0.541-0.348-0.771c-0.047-0.07-0.047-0.183-0.112-0.272l-40.99-58.457
	c-3.573-5.064-10.561-6.305-15.656-2.755c-5.098,3.555-6.329,10.565-2.737,15.657l28.615,40.778H82.056
	C71.317-68.257,20.473-69.028,19.932-69.028h-238.119c-6.201,0-11.228,5.036-11.228,11.228c0,6.192,5.036,11.228,11.228,11.228
	H19.932c0.357,0,35.55,0.682,40.929,54.662c-5.19,52.151-37.242,54.399-40.994,54.475l-238.044-0.179
	c-6.202,0-11.228,5.012-11.228,11.209c0,6.206,5.017,11.228,11.228,11.246l238.119,0.188c1.147,0,51.281-1.119,62.002-65.702
	h167.814l-28.605,40.802c-3.573,5.059-2.352,12.074,2.736,15.638c1.946,1.382,4.203,2.031,6.432,2.031
	c3.526,0,7.024-1.674,9.216-4.796l40.989-58.442c0.066-0.085,0.066-0.197,0.104-0.264c0.179-0.254,0.235-0.526,0.357-0.771
	c0.395-0.725,0.705-1.439,0.949-2.229c0.151-0.354,0.339-0.682,0.396-1.039V10.229z"/>
</svg>
