<?xml version="1.0" encoding="utf-8"?>
<!-- Generator: Adobe Illustrator 16.0.3, SVG Export Plug-In . SVG Version: 6.00 Build 0)  -->
<!DOCTYPE svg PUBLIC "-//W3C//DTD SVG 1.1//EN" "http://www.w3.org/Graphics/SVG/1.1/DTD/svg11.dtd">
<svg version="1.1" id="Calque_1" xmlns="http://www.w3.org/2000/svg" xmlns:xlink="http://www.w3.org/1999/xlink" x="0px" y="0px"
	 width="512px" height="512px" viewBox="-246 -248 512 512" enable-background="new -246 -248 512 512" xml:space="preserve">
<path fill="#444444" d="M265.84-150.762c-18.826,8.347-39.103,13.987-60.369,16.515c21.698-12.983,38.366-33.564,46.191-58.121
	c-20.275,12.043-42.762,20.784-66.721,25.497c-19.158-20.403-46.447-33.17-76.657-33.17c-58.007,0-105.037,47.031-105.037,105.038
	c0,8.22,0.915,16.223,2.731,23.935c-87.29-4.37-164.721-46.218-216.516-109.75c-9.058,15.512-14.203,33.564-14.203,52.823
	c0,36.448,18.523,68.602,46.726,87.417c-17.201-0.546-33.412-5.285-47.564-13.136c0,0.432,0,0.877,0,1.321
	c0,50.893,36.194,93.349,84.266,103.005c-8.816,2.362-18.103,3.658-27.682,3.658c-6.758,0-13.339-0.635-19.768-1.881
	c13.377,41.695,52.163,72.084,98.114,72.922c-35.953,28.178-81.23,44.973-130.458,44.973c-8.474,0-16.833-0.508-25.053-1.474
	c46.497,29.829,101.709,47.208,161.024,47.208c193.216,0,298.864-160.071,298.864-298.876c0-4.548-0.076-9.109-0.279-13.606
	c20.529-14.775,38.314-33.31,52.391-54.361V-150.762z"/>
</svg>
