<?xml version="1.0" encoding="utf-8"?>
<!-- Generator: Adobe Illustrator 16.0.3, SVG Export Plug-In . SVG Version: 6.00 Build 0)  -->
<!DOCTYPE svg PUBLIC "-//W3C//DTD SVG 1.1//EN" "http://www.w3.org/Graphics/SVG/1.1/DTD/svg11.dtd">
<svg version="1.1" id="Calque_1" xmlns="http://www.w3.org/2000/svg" xmlns:xlink="http://www.w3.org/1999/xlink" x="0px" y="0px"
	 width="512px" height="512px" viewBox="-242 -248 512 512" enable-background="new -242 -248 512 512" xml:space="preserve">
<path fill="#444444" d="M254.477,68.02L47.355-124.034c-2.049-1.925-4.557-2.703-6.853-4.142c-2.667-1.793-5.193-3.807-8.09-4.955
	c-2.933-1.184-5.935-1.528-8.991-2.12c-3.126-0.636-6.129-1.448-9.334-1.448c-2.932,0-5.697,0.813-8.558,1.281
	c-3.321,0.636-6.562,1.016-9.724,2.305c-2.773,1.13-5.193,3.091-7.781,4.769c-2.349,1.519-4.955,2.385-7.074,4.31L-226.205,68.02
	c-19.801,18.371-20.94,49.281-2.614,69.047c9.653,10.403,22.697,15.632,35.83,15.632c11.914,0,23.801-4.31,33.207-13L14.158-21.586
	l173.94,161.284c9.379,8.726,21.303,13,33.207,13c13.143,0,26.178-5.281,35.875-15.632
	C275.461,117.301,274.295,86.391,254.477,68.02z"/>
</svg>
