<?xml version="1.0" encoding="utf-8"?>
<!-- Generator: Adobe Illustrator 16.0.3, SVG Export Plug-In . SVG Version: 6.00 Build 0)  -->
<!DOCTYPE svg PUBLIC "-//W3C//DTD SVG 1.1//EN" "http://www.w3.org/Graphics/SVG/1.1/DTD/svg11.dtd">
<svg version="1.1" id="Calque_1" xmlns="http://www.w3.org/2000/svg" xmlns:xlink="http://www.w3.org/1999/xlink" x="0px" y="0px"
	 width="512px" height="512px" viewBox="-248 -248 512 512" enable-background="new -248 -248 512 512" xml:space="preserve">
<path fill="#444444" d="M124.002,30.468c3.219-10.984,5.469-22.25,5.469-34.188v-122.719c0-67-54.531-121.563-121.531-121.563
	c-67.016,0-121.578,54.563-121.578,121.563V-3.72c0,11.844,2.219,23.047,5.406,33.938c-31.703,10.094-61.172,29.969-84.469,58.5
	c-33.797,41.813-52.422,97.375-52.422,156.438c-0.031,0.063-0.031,0.094-0.031,0.156c0,10.344,8.422,18.688,18.719,18.688h468.656
	c7.813,0,14.438-4.781,17.25-11.531c0.969-2.313,1.5-4.719,1.5-7.344c0-101.781-57.688-189.344-136.938-214.656H124.002z
	 M-76.232-126.407c0-46.422,37.766-84.156,84.172-84.156c46.344,0,84.156,37.734,84.156,84.156V-3.688
	c0,46.406-37.813,84.156-84.156,84.156c-46.375,0-84.172-37.719-84.172-84.156V-126.407z M-163.717,112.249
	c19.719-24.188,44.672-40.406,71.109-47.719c21.922,32.063,58.781,53.313,100.547,53.313c41.625,0,78.469-21.125,100.344-53.25
	c61.625,17.031,107.594,82.563,113.875,162h-428.469c3.422-43.375,17.797-83.594,42.625-114.344H-163.717z"/>
</svg>
