<?xml version="1.0" encoding="utf-8"?>
<!-- Generator: Adobe Illustrator 18.1.1, SVG Export Plug-In . SVG Version: 6.00 Build 0)  -->
<svg version="1.1" id="Calque_1" xmlns="http://www.w3.org/2000/svg" xmlns:xlink="http://www.w3.org/1999/xlink" x="0px" y="0px"
	 viewBox="0 0 512 512" enable-background="new 0 0 512 512" xml:space="preserve">
<g>
	<path fill="#1E1E1C" d="M257.9,168.7c11.5,0,20.9,9.4,20.9,20.9c0,11.5-9.4,20.9-20.9,20.9s-20.9-9.4-20.9-20.9
		C237,178,246.4,168.7,257.9,168.7 M257.9,147.7c-23.1,0-41.9,18.8-41.9,41.9c0,23.1,18.8,41.9,41.9,41.9
		c23.1,0,41.9-18.8,41.9-41.9C299.8,166.4,281.1,147.7,257.9,147.7L257.9,147.7z"/>
	<path fill="#1E1E1C" d="M335.6,392H180v-10.5c0-31,0-38.3-29.8-59.4c-40.7-27.9-78.9-100.3-69.3-168.3C91.9,74.9,157.5,11,236.9,2
		c107.9-12.3,199.6,72.1,199.6,177.6c0,53.6-29.5,112.4-71.6,143c-29.3,21.7-29.3,26.7-29.3,58.9V392z M200.9,371h113.8
		c0.6-29.1,5.2-41.2,37.8-65.3c30.4-22.1,63.1-70.9,63.1-126.1c0-93.1-81-167.7-176.3-156.7c-70,7.9-127.9,64.2-137.7,133.9
		c-8.4,60.1,24.8,123.7,60.5,148.2C195.5,328.4,200.2,343.1,200.9,371z"/>
	<rect x="247.4" y="218.5" fill="#1E1E1C" width="21" height="154.1"/>
	<path fill="#1E1E1C" d="M266,510.1H180v-80h155.6v10.5C335.6,478.9,304.4,510.1,266,510.1z M201,489.1H266
		c23.2,0,42.6-16.3,47.4-38H201V489.1z"/>
</g>
</svg>
